<svg width="61" height="61" viewBox="0 0 61 61" fill="none" xmlns="http://www.w3.org/2000/svg">
<path d="M15.0138 13.0704C14.8879 12.9354 14.7361 12.827 14.5674 12.7518C14.3988 12.6767 14.2167 12.6363 14.0321 12.633C13.8474 12.6298 13.6641 12.6637 13.4928 12.7329C13.3216 12.802 13.1661 12.905 13.0355 13.0355C12.905 13.1661 12.802 13.3216 12.7329 13.4928C12.6637 13.6641 12.6298 13.8474 12.633 14.0321C12.6363 14.2167 12.6767 14.3988 12.7518 14.5674C12.827 14.7361 12.9354 14.8879 13.0704 15.0138L16.5813 18.5264C15.4334 18.9457 14.4422 19.7077 13.7421 20.7093C13.0419 21.7108 12.6666 22.9034 12.6671 24.1254V37.8754C12.6671 39.4557 13.2949 40.9712 14.4123 42.0886C15.5297 43.206 17.0452 43.8338 18.6254 43.8338H32.3754C34.9476 43.8338 37.1403 42.2021 37.9744 39.9196L46.9853 48.9323C47.2432 49.1902 47.5931 49.3351 47.9579 49.3351C48.3227 49.3351 48.6725 49.1902 48.9304 48.9323C49.1884 48.6743 49.3333 48.3245 49.3333 47.9597C49.3333 47.5949 49.1884 47.2451 48.9304 46.9871L15.0138 13.0704ZM35.5838 37.5271V37.8754C35.5838 38.7263 35.2458 39.5424 34.6441 40.1441C34.0424 40.7458 33.2263 41.0838 32.3754 41.0838H18.6254C17.7745 41.0838 16.9585 40.7458 16.3568 40.1441C15.7551 39.5424 15.4171 38.7263 15.4171 37.8754V24.1254C15.4171 22.3544 16.8544 20.9171 18.6254 20.9171H18.9738L35.5838 37.5271ZM35.5838 24.1254V29.7501L38.3338 32.5001V28.0378L45.8688 22.8348C45.9376 22.7873 46.0181 22.7595 46.1016 22.7545C46.185 22.7495 46.2683 22.7674 46.3423 22.8063C46.4163 22.8452 46.4783 22.9036 46.5215 22.9752C46.5647 23.0468 46.5875 23.1288 46.5874 23.2124V38.7866C46.5875 38.8702 46.5647 38.9523 46.5215 39.0239C46.4783 39.0955 46.4163 39.1539 46.3423 39.1928C46.2683 39.2317 46.185 39.2496 46.1016 39.2446C46.0181 39.2395 45.9376 39.2118 45.8688 39.1643L43.0546 37.2209L47.5133 41.6814C48.5583 41.1791 49.3374 40.1249 49.3374 38.7866V23.2124C49.3374 20.6274 46.4334 19.1021 44.3068 20.5724L38.3338 24.6974V24.1254C38.3338 22.5452 37.706 21.0297 36.5886 19.9123C35.4712 18.7949 33.9557 18.1671 32.3754 18.1671H24.0008L26.7508 20.9171H32.3754C34.1464 20.9171 35.5838 22.3544 35.5838 24.1254Z" fill="#FC8E33"/>
</svg>
