<svg width="61" height="61" viewBox="0 0 61 61" fill="none" xmlns="http://www.w3.org/2000/svg">
<path d="M10.1685 48.2891L7.80471 47.3486C7.63581 47.7736 7.5847 48.2363 7.65675 48.6878C7.7288 49.1394 7.92135 49.5632 8.21411 49.9145C8.50686 50.2658 8.88897 50.5316 9.32015 50.6839C9.75134 50.8362 10.2156 50.8694 10.6641 50.7799L10.1685 48.2891ZM22.1295 45.9101L23.3343 43.6709L22.5286 43.2388L21.6339 43.4167L22.1295 45.9101ZM14.2961 37.9114L16.6599 38.8519L17.0742 37.7996L16.576 36.7855L14.2961 37.9114ZM48.2935 30.4974C48.2935 38.7476 41.0421 45.7474 31.6964 45.7474V50.8307C43.4922 50.8307 53.3768 41.8993 53.3768 30.4974H48.2935ZM15.1018 30.4974C15.1018 22.2471 22.3557 15.2474 31.6989 15.2474V10.1641C19.903 10.1641 10.016 19.0955 10.016 30.4974H15.1018ZM31.6989 15.2474C41.0421 15.2474 48.2935 22.2471 48.2935 30.4974H53.3768C53.3768 19.0955 43.4948 10.1641 31.6989 10.1641V15.2474ZM31.6964 45.7474C28.6337 45.7474 25.7819 44.9849 23.3343 43.6709L20.9248 48.1467C24.2374 49.9226 27.9378 50.8451 31.6964 50.8307V45.7474ZM10.6641 50.7799L22.6252 48.4009L21.6339 43.4167L9.67283 45.7957L10.6641 50.7824V50.7799ZM16.576 36.7855C15.6084 34.8303 15.1057 32.6789 15.1018 30.4974H10.016C10.016 33.5474 10.7327 36.4398 12.0137 39.0374L16.576 36.7855ZM11.9349 36.971L7.80471 47.3512L12.5271 49.2269L16.6548 38.8493L11.9324 36.971H11.9349Z" fill="#FC8E33"/>
<path d="M22.8776 33.0398C24.2813 33.0398 25.4193 31.9019 25.4193 30.4982C25.4193 29.0945 24.2813 27.9565 22.8776 27.9565C21.4739 27.9565 20.3359 29.0945 20.3359 30.4982C20.3359 31.9019 21.4739 33.0398 22.8776 33.0398Z" fill="#FC8E33"/>
<path d="M31.7682 33.0398C33.172 33.0398 34.3099 31.9019 34.3099 30.4982C34.3099 29.0945 33.172 27.9565 31.7682 27.9565C30.3645 27.9565 29.2266 29.0945 29.2266 30.4982C29.2266 31.9019 30.3645 33.0398 31.7682 33.0398Z" fill="#FC8E33"/>
<path d="M40.6667 33.0398C42.0704 33.0398 43.2083 31.9019 43.2083 30.4982C43.2083 29.0945 42.0704 27.9565 40.6667 27.9565C39.2629 27.9565 38.125 29.0945 38.125 30.4982C38.125 31.9019 39.2629 33.0398 40.6667 33.0398Z" fill="#FC8E33"/>
</svg>
