<svg width="42" height="42" viewBox="0 0 42 42" fill="none" xmlns="http://www.w3.org/2000/svg">
<path fill-rule="evenodd" clip-rule="evenodd" d="M28.8743 3.9375C28.0422 3.93722 27.2201 4.11954 26.4661 4.47158C25.7122 4.82363 25.0446 5.33683 24.5106 5.97498C23.9766 6.61314 23.5891 7.3607 23.3755 8.16493C23.1619 8.96916 23.1273 9.81046 23.2743 10.6295L14.9968 16.4255L14.8778 16.5183C14.038 15.8618 13.0307 15.4545 11.9706 15.3429C10.9106 15.2313 9.84053 15.4198 8.88245 15.8869C7.92436 16.354 7.11683 17.081 6.55193 17.9849C5.98703 18.8888 5.6875 19.9332 5.6875 20.9991C5.6875 22.065 5.98703 23.1095 6.55193 24.0134C7.11683 24.9173 7.92436 25.6442 8.88245 26.1113C9.84053 26.5785 10.9106 26.767 11.9706 26.6553C13.0307 26.5437 14.038 26.1365 14.8778 25.48L14.9968 25.5745L23.2743 31.3705C23.2159 31.6972 23.1868 32.032 23.1868 32.375C23.187 33.7233 23.6662 35.0277 24.539 36.0555C25.4118 37.0833 26.6213 37.7675 27.9518 37.9862C29.2823 38.2049 30.6472 37.9438 31.803 37.2495C32.9588 36.5552 33.8304 35.4729 34.2622 34.1955C34.694 32.9182 34.658 31.529 34.1606 30.2758C33.6631 29.0226 32.7366 27.9868 31.5464 27.3533C30.3561 26.7199 28.9795 26.5299 27.6621 26.8172C26.3448 27.1046 25.1723 27.8506 24.354 28.9223L16.5158 23.4325C16.8658 22.694 17.0618 21.8697 17.0618 20.9982C17.0618 20.1267 16.8658 19.3007 16.5158 18.564L24.3558 13.076C24.9428 13.8451 25.7164 14.4517 26.6033 14.8384C27.4901 15.2251 28.461 15.3792 29.4241 15.2861C30.3871 15.193 31.3104 14.8557 32.1068 14.3062C32.9031 13.7567 33.5461 13.0132 33.975 12.1459C34.4038 11.2786 34.6043 10.3162 34.5575 9.34979C34.5107 8.3834 34.2181 7.44492 33.7074 6.62313C33.1968 5.80135 32.4849 5.12342 31.6392 4.65347C30.7934 4.18352 29.8418 3.9371 28.8743 3.9375ZM25.8118 9.625C25.8118 8.81278 26.1344 8.03382 26.7088 7.45949C27.2831 6.88516 28.062 6.5625 28.8743 6.5625C29.6865 6.5625 30.4655 6.88516 31.0398 7.45949C31.6141 8.03382 31.9368 8.81278 31.9368 9.625C31.9368 10.4372 31.6141 11.2162 31.0398 11.7905C30.4655 12.3648 29.6865 12.6875 28.8743 12.6875C28.062 12.6875 27.2831 12.3648 26.7088 11.7905C26.1344 11.2162 25.8118 10.4372 25.8118 9.625ZM11.3743 17.9375C10.562 17.9375 9.78309 18.2602 9.20876 18.8345C8.63443 19.4088 8.31177 20.1878 8.31177 21C8.31177 21.8122 8.63443 22.5912 9.20876 23.1655C9.78309 23.7398 10.562 24.0625 11.3743 24.0625C12.1865 24.0625 12.9655 23.7398 13.5398 23.1655C14.1141 22.5912 14.4368 21.8122 14.4368 21C14.4368 20.1878 14.1141 19.4088 13.5398 18.8345C12.9655 18.2602 12.1865 17.9375 11.3743 17.9375ZM28.8743 29.3125C28.062 29.3125 27.2831 29.6352 26.7088 30.2095C26.1344 30.7838 25.8118 31.5628 25.8118 32.375C25.8118 33.1872 26.1344 33.9662 26.7088 34.5405C27.2831 35.1148 28.062 35.4375 28.8743 35.4375C29.6865 35.4375 30.4655 35.1148 31.0398 34.5405C31.6141 33.9662 31.9368 33.1872 31.9368 32.375C31.9368 31.5628 31.6141 30.7838 31.0398 30.2095C30.4655 29.6352 29.6865 29.3125 28.8743 29.3125Z" fill="#FC8E33"/>
</svg>
