<svg width="38" height="38" viewBox="0 0 38 38" fill="none" xmlns="http://www.w3.org/2000/svg">
<g clip-path="url(#clip0_290_3439)">
<path d="M27.1451 6.78544V20.3569M27.1451 6.78544L23.0737 1.35687M27.1451 6.78544L31.2165 1.35687M1.35938 29.8569L7.99309 35.3832C8.96863 36.1954 10.198 36.6401 11.4674 36.6399H28.9528C30.2014 36.6399 31.2165 35.6274 31.2165 34.3789C31.2165 31.8817 29.1917 29.8542 26.6918 29.8542H14.5345M36.6451 6.78544H17.6451V20.3569H36.6451V6.78544Z" stroke="#FC8E33" stroke-width="2.71429" stroke-linecap="round" stroke-linejoin="round"/>
<path d="M9.50223 27.1426L11.5379 29.1783C12.0779 29.7182 12.8101 30.0215 13.5737 30.0215C14.3372 30.0215 15.0695 29.7182 15.6094 29.1783C16.1493 28.6384 16.4526 27.9061 16.4526 27.1426C16.4526 26.3791 16.1493 25.6468 15.6094 25.1069L12.4499 21.9447C11.9451 21.4405 11.3458 21.0406 10.6863 20.7682C10.0268 20.4957 9.32007 20.356 8.60652 20.3569H1.35938" stroke="#FC8E33" stroke-width="2.71429" stroke-linecap="round" stroke-linejoin="round"/>
</g>
<defs>
<clipPath id="clip0_290_3439">
<rect width="38" height="38" fill="white"/>
</clipPath>
</defs>
</svg>
